<mxfile host="app.diagrams.net" agent="Mozilla/5.0 (Macintosh; Intel Mac OS X 10_15_7) AppleWebKit/537.36 (KHTML, like Gecko) Chrome/135.0.0.0 Safari/537.36" version="26.2.5">
  <diagram name="Chronologique" id="fO5YoEe-ItJTyVoHk6GA">
    <mxGraphModel grid="1" page="1" gridSize="10" guides="1" tooltips="1" connect="1" arrows="1" fold="1" pageScale="1" pageWidth="413" pageHeight="291" math="0" shadow="0">
      <root>
        <mxCell id="SSPYEXlhTfddfAKFS_Tq-0" />
        <mxCell id="XQDS0evC06wZssxCAoC3-0" value="bg" style="locked=1;" parent="SSPYEXlhTfddfAKFS_Tq-0" />
        <mxCell id="XQDS0evC06wZssxCAoC3-1" value="" style="rounded=0;whiteSpace=wrap;html=1;fillColor=#f5f5f5;fontColor=#333333;strokeColor=none;" vertex="1" parent="XQDS0evC06wZssxCAoC3-0">
          <mxGeometry x="29" y="355" width="770" height="160" as="geometry" />
        </mxCell>
        <mxCell id="XQDS0evC06wZssxCAoC3-2" value="" style="rounded=0;whiteSpace=wrap;html=1;fillColor=#FCFCFC;fontColor=#333333;strokeColor=none;" vertex="1" parent="XQDS0evC06wZssxCAoC3-0">
          <mxGeometry x="29" y="515" width="770" height="80" as="geometry" />
        </mxCell>
        <mxCell id="XQDS0evC06wZssxCAoC3-3" value="" style="rounded=0;whiteSpace=wrap;html=1;fillColor=#f5f5f5;fontColor=#333333;strokeColor=none;" vertex="1" parent="XQDS0evC06wZssxCAoC3-0">
          <mxGeometry x="29" y="595" width="770" height="110" as="geometry" />
        </mxCell>
        <mxCell id="XQDS0evC06wZssxCAoC3-4" value="" style="rounded=0;whiteSpace=wrap;html=1;fillColor=#FCFCFC;fontColor=#333333;strokeColor=none;" vertex="1" parent="XQDS0evC06wZssxCAoC3-0">
          <mxGeometry x="29" y="705" width="770" height="110" as="geometry" />
        </mxCell>
        <mxCell id="1kZ_usVpYaBenlZrx28r-22" value="Quarts de finale Sportifs" style="text;html=1;strokeColor=none;fillColor=none;align=center;verticalAlign=middle;whiteSpace=wrap;rounded=0;fontSize=13;fontStyle=1" vertex="1" parent="XQDS0evC06wZssxCAoC3-0">
          <mxGeometry x="59" y="375" width="90" height="120" as="geometry" />
        </mxCell>
        <mxCell id="SSPYEXlhTfddfAKFS_Tq-16" value="Finale Féminines et Vétérans" style="text;html=1;strokeColor=none;fillColor=none;align=center;verticalAlign=middle;whiteSpace=wrap;rounded=0;fontSize=13;fontStyle=1" vertex="1" parent="XQDS0evC06wZssxCAoC3-0">
          <mxGeometry x="49" y="535" width="110" height="40" as="geometry" />
        </mxCell>
        <mxCell id="1kZ_usVpYaBenlZrx28r-23" value="Demi-finales Sportifs" style="text;html=1;strokeColor=none;fillColor=none;align=center;verticalAlign=middle;whiteSpace=wrap;rounded=0;fontSize=13;fontStyle=1" vertex="1" parent="XQDS0evC06wZssxCAoC3-0">
          <mxGeometry x="59" y="615" width="90" height="40" as="geometry" />
        </mxCell>
        <mxCell id="1kZ_usVpYaBenlZrx28r-24" value="Finale Sportifs" style="text;html=1;strokeColor=none;fillColor=none;align=center;verticalAlign=middle;whiteSpace=wrap;rounded=0;fontSize=13;fontStyle=1" vertex="1" parent="XQDS0evC06wZssxCAoC3-0">
          <mxGeometry x="29" y="735" width="150" height="50" as="geometry" />
        </mxCell>
        <mxCell id="SSPYEXlhTfddfAKFS_Tq-1" value="coutenu" style="" parent="SSPYEXlhTfddfAKFS_Tq-0" />
        <mxCell id="1kZ_usVpYaBenlZrx28r-16" style="edgeStyle=orthogonalEdgeStyle;rounded=0;orthogonalLoop=1;jettySize=auto;html=1;" edge="1" parent="SSPYEXlhTfddfAKFS_Tq-1" source="SSPYEXlhTfddfAKFS_Tq-3" target="SSPYEXlhTfddfAKFS_Tq-8">
          <mxGeometry relative="1" as="geometry">
            <Array as="points">
              <mxPoint x="269" y="435" />
              <mxPoint x="409" y="435" />
            </Array>
          </mxGeometry>
        </mxCell>
        <mxCell id="SSPYEXlhTfddfAKFS_Tq-3" value="79 - 17:30 - A&lt;br&gt;&lt;font&gt;&lt;span style=&quot;font-size: 12px&quot;&gt;&lt;b&gt;&lt;span&gt;FC Lasagneles&lt;/span&gt;&amp;nbsp;- Ragazzinho&lt;/b&gt;&lt;/span&gt;&lt;/font&gt;&lt;div&gt;&lt;font&gt;&lt;span style=&quot;font-size: 12px&quot;&gt;&lt;b&gt;1-0&lt;/b&gt;&lt;/span&gt;&lt;/font&gt;&lt;/div&gt;" style="rounded=0;whiteSpace=wrap;html=1;fontSize=9;" vertex="1" parent="SSPYEXlhTfddfAKFS_Tq-1">
          <mxGeometry x="189" y="375" width="181" height="40" as="geometry" />
        </mxCell>
        <mxCell id="1kZ_usVpYaBenlZrx28r-19" style="edgeStyle=orthogonalEdgeStyle;rounded=0;orthogonalLoop=1;jettySize=auto;html=1;" edge="1" parent="SSPYEXlhTfddfAKFS_Tq-1" source="SSPYEXlhTfddfAKFS_Tq-6" target="SSPYEXlhTfddfAKFS_Tq-14">
          <mxGeometry relative="1" as="geometry" />
        </mxCell>
        <mxCell id="SSPYEXlhTfddfAKFS_Tq-6" value="82 - 17:45 - B&lt;br&gt;&lt;b&gt;&lt;font style=&quot;font-size: 12px&quot;&gt;Swissmec - Les Suzerains&lt;/font&gt;&lt;/b&gt;&lt;div&gt;&lt;b&gt;&lt;font style=&quot;font-size: 12px&quot;&gt;0-2&lt;/font&gt;&lt;/b&gt;&lt;/div&gt;" style="rounded=0;whiteSpace=wrap;html=1;fontSize=9;" vertex="1" parent="SSPYEXlhTfddfAKFS_Tq-1">
          <mxGeometry x="610" y="455" width="169" height="40" as="geometry" />
        </mxCell>
        <mxCell id="1kZ_usVpYaBenlZrx28r-20" style="edgeStyle=orthogonalEdgeStyle;rounded=0;orthogonalLoop=1;jettySize=auto;html=1;" edge="1" parent="SSPYEXlhTfddfAKFS_Tq-1" source="SSPYEXlhTfddfAKFS_Tq-8" target="SSPYEXlhTfddfAKFS_Tq-15">
          <mxGeometry relative="1" as="geometry">
            <Array as="points">
              <mxPoint x="349" y="685" />
              <mxPoint x="469" y="685" />
            </Array>
          </mxGeometry>
        </mxCell>
        <mxCell id="SSPYEXlhTfddfAKFS_Tq-8" value="&lt;div&gt;&lt;font style=&quot;font-size: 9px;&quot;&gt;A-18:15&lt;/font&gt;&lt;/div&gt;&lt;b&gt;&lt;font style=&quot;font-size: 14px;&quot;&gt;FC Lasagneles - Los Galacticos&lt;/font&gt;&lt;/b&gt;&lt;div&gt;&lt;b&gt;&lt;font style=&quot;font-size: 14px;&quot;&gt;0-4&lt;/font&gt;&lt;/b&gt;&lt;/div&gt;" style="rounded=0;whiteSpace=wrap;html=1;fontSize=9;" vertex="1" parent="SSPYEXlhTfddfAKFS_Tq-1">
          <mxGeometry x="210" y="600" width="219" height="60" as="geometry" />
        </mxCell>
        <mxCell id="1kZ_usVpYaBenlZrx28r-17" style="edgeStyle=orthogonalEdgeStyle;rounded=0;orthogonalLoop=1;jettySize=auto;html=1;" edge="1" parent="SSPYEXlhTfddfAKFS_Tq-1" source="SSPYEXlhTfddfAKFS_Tq-10" target="SSPYEXlhTfddfAKFS_Tq-8">
          <mxGeometry relative="1" as="geometry">
            <Array as="points">
              <mxPoint x="469" y="435" />
              <mxPoint x="409" y="435" />
            </Array>
          </mxGeometry>
        </mxCell>
        <mxCell id="SSPYEXlhTfddfAKFS_Tq-10" value="80 - 17:30 - B&lt;br style=&quot;font-size: 9px&quot;&gt;&lt;b style=&quot;font-size: 12px;&quot;&gt;Los Galacticos -&amp;nbsp;&lt;/b&gt;&lt;span style=&quot;font-size: 12px;&quot;&gt;&lt;b&gt;Team MLJP&lt;/b&gt;&lt;/span&gt;&lt;div&gt;&lt;span style=&quot;font-size: 12px;&quot;&gt;&lt;b&gt;2-0&lt;/b&gt;&lt;/span&gt;&lt;/div&gt;" style="rounded=0;whiteSpace=wrap;html=1;fontSize=9;fillColor=#FFFFFF;" vertex="1" parent="SSPYEXlhTfddfAKFS_Tq-1">
          <mxGeometry x="389" y="360" width="201" height="60" as="geometry" />
        </mxCell>
        <mxCell id="1kZ_usVpYaBenlZrx28r-18" style="edgeStyle=orthogonalEdgeStyle;rounded=0;orthogonalLoop=1;jettySize=auto;html=1;" edge="1" parent="SSPYEXlhTfddfAKFS_Tq-1" source="SSPYEXlhTfddfAKFS_Tq-12" target="SSPYEXlhTfddfAKFS_Tq-14">
          <mxGeometry relative="1" as="geometry" />
        </mxCell>
        <mxCell id="SSPYEXlhTfddfAKFS_Tq-12" value="81 - 17:45 - A&lt;br&gt;&lt;span style=&quot;font-size: 12px;&quot;&gt;&lt;b&gt;Relègue à Sion- Café Court&lt;/b&gt;&lt;/span&gt;&lt;div&gt;&lt;span style=&quot;font-size: 12px;&quot;&gt;&lt;b&gt;3-0&lt;/b&gt;&lt;/span&gt;&lt;/div&gt;" style="rounded=0;whiteSpace=wrap;html=1;fontSize=9;" vertex="1" parent="SSPYEXlhTfddfAKFS_Tq-1">
          <mxGeometry x="420" y="455" width="180" height="40" as="geometry" />
        </mxCell>
        <mxCell id="1kZ_usVpYaBenlZrx28r-21" style="edgeStyle=orthogonalEdgeStyle;rounded=0;orthogonalLoop=1;jettySize=auto;html=1;" edge="1" parent="SSPYEXlhTfddfAKFS_Tq-1" source="SSPYEXlhTfddfAKFS_Tq-14" target="SSPYEXlhTfddfAKFS_Tq-15">
          <mxGeometry relative="1" as="geometry">
            <Array as="points">
              <mxPoint x="609" y="685" />
              <mxPoint x="469" y="685" />
            </Array>
          </mxGeometry>
        </mxCell>
        <mxCell id="SSPYEXlhTfddfAKFS_Tq-14" value="85 - 18:15 - B&lt;div&gt;&lt;font style=&quot;font-size: 12px;&quot;&gt;&lt;b&gt;Relègue à Sion - Les Suzerains&lt;/b&gt;&lt;/font&gt;&lt;/div&gt;&lt;div&gt;&lt;font style=&quot;font-size: 12px;&quot;&gt;&lt;b&gt;0-0&lt;/b&gt;&lt;/font&gt;&lt;/div&gt;&lt;div&gt;&lt;font style=&quot;font-size: 12px;&quot;&gt;&lt;b&gt;(TAB 1-4)&lt;/b&gt;&lt;/font&gt;&lt;/div&gt;" style="rounded=0;whiteSpace=wrap;html=1;fontSize=9;" vertex="1" parent="SSPYEXlhTfddfAKFS_Tq-1">
          <mxGeometry x="510" y="615" width="210" height="55" as="geometry" />
        </mxCell>
        <mxCell id="SSPYEXlhTfddfAKFS_Tq-15" value="86 - 18:45 - B&lt;br&gt;&lt;b style=&quot;font-size: 12px;&quot;&gt;Los Galacticos - Les Suzerains&lt;/b&gt;&lt;div&gt;&lt;b style=&quot;font-size: 12px;&quot;&gt;0-2&lt;/b&gt;&lt;/div&gt;" style="rounded=0;whiteSpace=wrap;html=1;fontSize=9;horizontal=1;strokeWidth=1;" vertex="1" parent="SSPYEXlhTfddfAKFS_Tq-1">
          <mxGeometry x="369" y="735" width="200" height="50" as="geometry" />
        </mxCell>
        <mxCell id="SSPYEXlhTfddfAKFS_Tq-17" value="83 - 18:00 - B&lt;br&gt;&lt;span style=&quot;font-size: 12px;&quot;&gt;&lt;b&gt;Daddy Cool - Les Olives&lt;/b&gt;&lt;/span&gt;&lt;div&gt;&lt;span style=&quot;font-size: 12px;&quot;&gt;&lt;b&gt;0-1&lt;/b&gt;&lt;/span&gt;&lt;/div&gt;" style="rounded=0;whiteSpace=wrap;html=1;fontSize=9;" vertex="1" parent="SSPYEXlhTfddfAKFS_Tq-1">
          <mxGeometry x="189" y="530" width="200" height="50" as="geometry" />
        </mxCell>
      </root>
    </mxGraphModel>
  </diagram>
</mxfile>
